<?xml version="1.0" encoding="UTF-8"?>
<svg id="Layer_2" data-name="Layer 2" xmlns="http://www.w3.org/2000/svg" viewBox="0 0 863.93 186.12">
  <defs>
    <style>
      .cls-1 {
        font-family: SpaceGrotesk-Medium, 'Space Grotesk';
        font-size: 12.15px;
        font-variation-settings: 'wght' 500;
        font-weight: 500;
      }

      .cls-1, .cls-2 {
        fill: #2970ff;
      }

      .cls-3 {
        letter-spacing: -.02em;
      }

      .cls-4 {
        letter-spacing: -.04em;
      }

      .cls-5 {
        letter-spacing: -.06em;
      }

      .cls-6 {
        letter-spacing: -.04em;
      }
    </style>
  </defs>
  <g id="Layer_1-2" data-name="Layer 1">
    <g>
      <path class="cls-2" d="M724.98,26.32l-13.87,118.67h-34.42l-28.02-68.25-7.98,68.25h-30.51l13.88-118.67h34.42l28.02,68.25,7.98-68.25h30.51Z"/>
      <path class="cls-2" d="M191.08,114.26c-.39,1.22-9.87,29.74-31.18,29.74-7.18,0-13.79-3.2-19.18-9.26-1.91,2.91-3.85,5.76-5.82,8.56h-18.49c5.38-7.1,10.73-14.85,15.73-22.89-8.73-20.99-10.16-51.48-7.16-69.97,3.43-21.11,16.21-29.69,27.38-28.82,10.27.8,21.36,10.01,21.47,28.36.12,20.41-10.37,46.6-24.67,71.14.77,1.25,1.58,2.39,2.43,3.38,3.9,4.58,7.22,4.58,8.32,4.58,8.65,0,15.33-14.39,16.98-19.43l14.2,4.61ZM142.2,102.88c9.92-18.94,16.79-38.01,16.71-52.82-.05-8.52-3.91-13.27-7.7-13.57-.13,0-.26-.01-.39-.01-4.14,0-9.26,5.02-11.1,16.34-2.32,14.27-1.38,34.13,2.48,50.05Z"/>
      <path class="cls-2" d="M0,142.32v-.38c0-.94.75-1.69,1.69-1.69h4.13c.94,0,1.69-.75,1.69-1.69v-.38c0-.94.75-1.69,1.69-1.69h4.13c.94,0,1.69-.75,1.69-1.69v-.38c0-.94.75-1.69,1.69-1.69h.38c.94,0,1.69-.75,1.69-1.69v-4.13c0-.94.75-1.69,1.69-1.69h.38c.94,0,1.69-.75,1.69-1.69v-11.64c0-.94.75-1.69,1.69-1.69h.38c.94,0,1.69-.75,1.69-1.69v-7.89c0-.94.75-1.69,1.69-1.69h.38c.94,0,1.69-.75,1.69-1.69v-11.64c0-.94.75-1.69,1.69-1.69h.38c.94,0,1.69-.75,1.69-1.69v-7.89c0-.94.75-1.69,1.69-1.69h.38c.94,0,1.69-.75,1.69-1.69v-11.64c0-.94.75-1.69,1.69-1.69h.38c.94,0,1.69-.75,1.69-1.69v-7.89c0-.94.75-1.69,1.69-1.69h.38c.94,0,1.69-.75,1.69-1.69v-11.64c0-.94.75-1.69,1.69-1.69h.38c.94,0,1.69-.75,1.69-1.69v-7.89c0-.94.75-1.69,1.69-1.69h.38c.94,0,1.69-.75,1.69-1.69v-7.89c0-.94-.75-1.69-1.69-1.69h-.38c-.94,0-1.69-.75-1.69-1.69v-.38c0-.94-.75-1.69-1.69-1.69h-4.13c-.94,0-1.69-.75-1.69-1.69v-.38c0-.94.75-1.69,1.69-1.69h56.71c.94,0,1.69.75,1.69,1.69v.38c0,.94.75,1.69,1.69,1.69h.38c.94,0,1.69.75,1.69,1.69v.38c0,.94.75,1.69,1.69,1.69h.38c.94,0,1.69.75,1.69,1.69v.38c0,.94.75,1.69,1.69,1.69h.38c.94,0,1.69.75,1.69,1.69v.38c0,.94.75,1.69,1.69,1.69h.38c.94,0,1.69.75,1.69,1.69v26.67c0,.94-.75,1.69-1.69,1.69h-.38c-.94,0-1.69.75-1.69,1.69v4.13c0,.94-.75,1.69-1.69,1.69h-.38c-.94,0-1.69.75-1.69,1.69v.38c0,.94-.75,1.69-1.69,1.69h-.38c-.94,0-1.69.75-1.69,1.69v.38c0,.94-.75,1.69-1.69,1.69h-.38c-.94,0-1.69.75-1.69,1.69v.38c0,.94-.75,1.69-1.69,1.69h-.38c-.94,0-1.69.75-1.69,1.69v.38c0,.94-.75,1.69-1.69,1.69h-4.13c-.94,0-1.69.75-1.69,1.69v4.13c0,.94.75,1.69,1.69,1.69h.38c.94,0,1.69.75,1.69,1.69v.38c0,.94.75,1.69,1.69,1.69h.38c.94,0,1.69.75,1.69,1.69v4.13c0,.94.75,1.69,1.69,1.69h.38c.94,0,1.69.75,1.69,1.69v22.91c0,.94-.75,1.69-1.69,1.69h-.38c-.94,0-1.69.75-1.69,1.69v4.13c0,.94-.75,1.69-1.69,1.69h-.38c-.94,0-1.69.75-1.69,1.69v4.13c0,.94-.75,1.69-1.69,1.69h-.38c-.94,0-1.69.75-1.69,1.69v.38c0,.94-.75,1.69-1.69,1.69h-4.13c-.94,0-1.69.75-1.69,1.69v.38c0,.94-.75,1.69-1.69,1.69h-.38c-.94,0-1.69.75-1.69,1.69v.38c0,.94-.75,1.69-1.69,1.69h-7.89c-.94,0-1.69.75-1.69,1.69v.38c0,.94-.75,1.69-1.69,1.69H1.69c-.94,0-1.69-.75-1.69-1.69ZM35.49,136.5h26.66c.94,0,1.69-.75,1.69-1.69v-.38c0-.94.75-1.69,1.69-1.69h4.13c.94,0,1.69-.75,1.69-1.69v-.38c0-.94.75-1.69,1.69-1.69h.38c.94,0,1.69-.75,1.69-1.69v-.38c0-.94.75-1.69,1.69-1.69h.38c.94,0,1.69-.75,1.69-1.69v-.38c0-.94.75-1.69,1.69-1.69h.38c.94,0,1.69-.75,1.69-1.69v-7.89c0-.94.75-1.69,1.69-1.69h.38c.94,0,1.69-.75,1.69-1.69v-15.4c0-.94-.75-1.69-1.69-1.69h-.38c-.94,0-1.69-.75-1.69-1.69v-7.89c0-.94-.75-1.69-1.69-1.69h-.38c-.94,0-1.69-.75-1.69-1.69v-.38c0-.94-.75-1.69-1.69-1.69h-26.66c-.94,0-1.69.75-1.69,1.69v4.13c0,.94-.75,1.69-1.69,1.69h-.38c-.94,0-1.69.75-1.69,1.69v11.64c0,.94-.75,1.69-1.69,1.69h-.38c-.94,0-1.69.75-1.69,1.69v7.89c0,.94-.75,1.69-1.69,1.69h-.38c-.94,0-1.69.75-1.69,1.69v11.64c0,.94-.75,1.69-1.69,1.69h-.38c-.94,0-1.69.75-1.69,1.69v7.89c0,.94.75,1.69,1.69,1.69ZM54.27,68.9h19.15c.94,0,1.69-.75,1.69-1.69v-.38c0-.94.75-1.69,1.69-1.69h7.89c.94,0,1.69-.75,1.69-1.69v-.38c0-.94.75-1.69,1.69-1.69h.38c.94,0,1.69-.75,1.69-1.69v-.38c0-.94.75-1.69,1.69-1.69h.38c.94,0,1.69-.75,1.69-1.69v-.38c0-.94.75-1.69,1.69-1.69h.38c.94,0,1.69-.75,1.69-1.69v-4.13c0-.94.75-1.69,1.69-1.69h.38c.94,0,1.69-.75,1.69-1.69v-22.91c0-.94-.75-1.69-1.69-1.69h-.38c-.94,0-1.69-.75-1.69-1.69v-.38c0-.94-.75-1.69-1.69-1.69h-.38c-.94,0-1.69-.75-1.69-1.69v-.38c0-.94-.75-1.69-1.69-1.69h-.38c-.94,0-1.69-.75-1.69-1.69v-.38c0-.94-.75-1.69-1.69-1.69h-15.4c-.94,0-1.69.75-1.69,1.69v.38c0,.94-.75,1.69-1.69,1.69h-.38c-.94,0-1.69.75-1.69,1.69v4.13c0,.94-.75,1.69-1.69,1.69h-.38c-.94,0-1.69.75-1.69,1.69v7.89c0,.94-.75,1.69-1.69,1.69h-.38c-.94,0-1.69.75-1.69,1.69v11.64c0,.94-.75,1.69-1.69,1.69h-.38c-.94,0-1.69.75-1.69,1.69v7.89c0,.94-.75,1.69-1.69,1.69h-.38c-.94,0-1.69.75-1.69,1.69v7.89c0,.94.75,1.69,1.69,1.69Z"/>
      <path class="cls-2" d="M574.62,143.44v-.35c0-.86-.69-1.55-1.55-1.55h-.35c-.86,0-1.55-.69-1.55-1.55v-14.14c0-.86.69-1.55,1.55-1.55h.35c.86,0,1.55-.69,1.55-1.55v-7.24c0-.86.69-1.55,1.55-1.55h.35c.86,0,1.55-.69,1.55-1.55v-7.24c0-.86.69-1.55,1.55-1.55h.35c.86,0,1.55-.69,1.55-1.55v-7.24c0-.86.69-1.55,1.55-1.55h.35c.86,0,1.55-.69,1.55-1.55v-7.24c0-.86.69-1.55,1.55-1.55h.35c.86,0,1.55-.69,1.55-1.55v-7.24c0-.86.69-1.55,1.55-1.55h.35c.86,0,1.55-.69,1.55-1.55v-7.24c0-.86-.69-1.55-1.55-1.55h-.35c-.86,0-1.55.69-1.55,1.55v.35c0,.86-.69,1.55-1.55,1.55h-.35c-.86,0-1.55.69-1.55,1.55v.35c0,.86-.69,1.55-1.55,1.55h-.35c-.86,0-1.55-.69-1.55-1.55v-3.8c0-.86.69-1.55,1.55-1.55h.35c.86,0,1.55-.69,1.55-1.55v-.35c0-.86.69-1.55,1.55-1.55h.35c.86,0,1.55-.69,1.55-1.55v-.35c0-.86.69-1.55,1.55-1.55h10.69c.86,0,1.55.69,1.55,1.55v.35c0,.86.69,1.55,1.55,1.55h.35c.86,0,1.55.69,1.55,1.55v10.69c0,.86-.69,1.55-1.55,1.55h-.35c-.86,0-1.55.69-1.55,1.55v7.24c0,.86-.69,1.55-1.55,1.55h-.35c-.86,0-1.55.69-1.55,1.55v7.24c0,.86-.69,1.55-1.55,1.55h-.35c-.86,0-1.55.69-1.55,1.55v7.24c0,.86-.69,1.55-1.55,1.55h-.35c-.86,0-1.55.69-1.55,1.55v7.24c0,.86-.69,1.55-1.55,1.55h-.35c-.86,0-1.55.69-1.55,1.55v7.24c0,.86-.69,1.55-1.55,1.55h-.35c-.86,0-1.55.69-1.55,1.55v10.69c0,.86.69,1.55,1.55,1.55h.35c.86,0,1.55-.69,1.55-1.55v-.35c0-.86.69-1.55,1.55-1.55h.35c.86,0,1.55-.69,1.55-1.55v-.35c0-.86.69-1.55,1.55-1.55h.35c.86,0,1.55.69,1.55,1.55v3.8c0,.86-.69,1.55-1.55,1.55h-.35c-.86,0-1.55.69-1.55,1.55v.35c0,.86-.69,1.55-1.55,1.55h-.35c-.86,0-1.55.69-1.55,1.55v.35c0,.86-.69,1.55-1.55,1.55h-10.69c-.86,0-1.55-.69-1.55-1.55ZM595.32,18.92c0-.86.69-1.55,1.55-1.55h.35c.86,0,1.55-.69,1.55-1.55v-.35c0-.86.69-1.55,1.55-1.55h7.24c.86,0,1.55.69,1.55,1.55v.35c0,.86.69,1.55,1.55,1.55h.35c.86,0,1.55.69,1.55,1.55v7.24c0,.86-.69,1.55-1.55,1.55h-.35c-.86,0-1.55.69-1.55,1.55v.35c0,.86-.69,1.55-1.55,1.55h-7.24c-.86,0-1.55-.69-1.55-1.55v-.35c0-.86-.69-1.55-1.55-1.55h-.35c-.86,0-1.55-.69-1.55-1.55v-7.24Z"/>
      <path class="cls-2" d="M468.74,144.99c4.87-.94,9.8-7.04,9.8-17.96V44.28c0-10.91-4.92-17.01-9.8-17.96h44.31c50.71,0,51.17,54.3-.05,58.19,8.65,1.18,19.05,5.48,24.72,17.43l12.14,25.67c3.96,8.07,10.76,16.09,15.55,17.38h-30.39l-4.96-10.47-22.92-48.46-.63-1.33c-2.15,0-4.31-.05-6.46-.11v42.41c0,10.93,4.92,17.02,9.8,17.96h-41.1ZM500.05,83.84c4.36.23,8.73.44,13.02-.25,22.24-3.59,23.42-56.55-.02-56.35-4.33.04-8.66.02-13,0v56.59Z"/>
      <path class="cls-2" d="M462.21,90.03c-7.72,4.91-15.97,11.97-23.69,19.19-4.58-2.89-11.39-5.34-16.62-6.64v42.8c0,3.61.65,7.36,1.18,9.23v.29l-2.88-.43c-.39-1.73-.65-5.34-.65-8.08v-44.24c-1.83-.29-3.53-.58-5.5-.72v41.93c0,3.03.26,7.21.65,10.39l-.39.14c-2.09-2.02-5.1-6.49-5.89-10.1h-.39c-2.62,5.48-7.07,10.24-11.39,12.55l-.39-.14c1.7-3.75,2.62-9.52,2.62-15.15v-40.63h-6.68c-6.15,0-9.69,2.6-11.26,6.49l-1.31-.58c.79-12.26,6.68-21.79,16.23-21.79h3.01v-21.64h-2.62c-6.15,0-9.69,2.6-11.26,6.49l-1.31-.58c1.05-11.4,5.24-21.21,14.79-21.21h.39v-23.95c-10.86-8.22-13.09-9.38-14.92-9.38-2.09,0-3.53,1.44-5.37,3.17l-1.57-2.02L393.36.14c5.11,3.9,11.26,8.8,21.07,16.88l5.11-3.75v-3.32c0-3.61-.65-7.36-1.18-9.23v-.29l2.88.43c.39,1.73.65,5.34.65,8.08v2.6l15.31-11.54c19.5,4.04,25,18.47,25,35.06v54.97ZM419.53,16.59l-5.5,4.04v64.63c1.96,0,3.53.14,5.5.43V16.59ZM447.02,40.4v-4.62c0-15.87-8.77-21.5-20.81-24.24l-4.32,3.32v38.52l25.13-12.98ZM447.02,53.81v-10.53l-25.13,12.84v10.68l25.13-12.98ZM447.02,95.22v-38.52l-25.13,12.84v16.59c8.51,1.15,18.72,5.19,24.87,9.23l.26-.14Z"/>
      <path class="cls-2" d="M749.94,144.99v-11.08h25.91V37.4h-11.02c-13.65,0-14.83,1.78-14.83,15.62v15.03h-12.26V26.32h88.5v41.73h-12.26v-15.03c0-13.84-1.19-15.62-14.83-15.62h-11.02v96.52h25.91v11.08h-64.08Z"/>
      <path class="cls-2" d="M198.27,21.6l18.19,18.36v27.98l-11.37,11.54-6.82-6.99V21.6ZM198.27,122.32l9.09,9.09,9.09-9.09v-24.66l-11.37-11.37-6.82,6.82v29.2ZM219.96,144.01l-9.09-9.09,9.09-9.09h34.27l9.09,9.09-9.09,9.09h-34.27ZM275.74,72.48l-6.82,7-11.37-11.55v-28l18.19-18.38v50.93ZM275.74,122.32l-9.09,9.09-9.09-9.09v-24.66l11.37-11.37,6.82,6.82v29.2Z"/>
      <path class="cls-2" d="M310.71,56.99c0,11.71,7.48,18.56,21.03,18.56h27.11l-2.03,11.53h-28.36c-19.94,0-32.56,9.91-32.56,26.13,0,13.88,10.13,21.8,30.07,21.8,16.2,0,30.69-5.41,39.11-14.06l4.05,10.45c-9.66,9.19-26.49,14.96-44.4,14.96-24.93,0-40.35-11.71-40.35-31.72,0-17.48,10.59-30.45,26.8-34.78-7.48-3.96-11.84-12.07-11.84-22.71,0-23.79,18.38-39.1,46.12-39.1,14.02,0,26.49,3.42,35.21,10.09l-4.21,10.63c-9.35-6.67-19.94-9.37-31.78-9.37-20.72,0-33.96,10.99-33.96,27.57Z"/>
    </g>
    <text class="cls-1" transform="translate(633.12 176.2)"><tspan class="cls-3" x="0" y="0">C</tspan><tspan class="cls-6" x="7.51" y="0">r</tspan><tspan class="cls-3" x="11.69" y="0">e</tspan><tspan class="cls-5" x="18.48" y="0">a</tspan><tspan class="cls-4" x="24.78" y="0">t</tspan><tspan class="cls-3" x="29.82" y="0">ed by</tspan></text>
    <g>
      <path class="cls-2" d="M710.04,181.45c-2.28,0-4.06-.47-5.34-1.41-1.28-.94-1.94-2.22-2-3.85h4.24c.08.75.38,1.33.9,1.74.52.41,1.24.61,2.15.61.79,0,1.4-.17,1.83-.51.43-.34.64-.79.64-1.35,0-.29-.09-.54-.26-.75-.17-.21-.42-.4-.73-.55-.31-.15-.68-.29-1.12-.42-.44-.13-.91-.26-1.44-.39-.6-.17-1.18-.37-1.74-.58-.56-.21-1.06-.49-1.49-.83-.44-.34-.78-.75-1.04-1.23-.26-.48-.39-1.08-.39-1.8,0-.81.16-1.53.48-2.16.32-.63.77-1.16,1.35-1.6.58-.44,1.27-.76,2.08-.99.8-.22,1.67-.33,2.6-.33,2.11,0,3.7.41,4.79,1.22,1.08.81,1.73,1.93,1.94,3.37h-4.21c-.1-.56-.36-.99-.78-1.29-.43-.3-1.02-.45-1.77-.45-.68,0-1.22.15-1.63.44-.41.29-.61.69-.61,1.19,0,.27.08.49.25.67.16.17.4.33.7.46.3.14.67.27,1.1.39.44.13.91.26,1.44.39.6.16,1.19.34,1.77.57.58.22,1.1.51,1.55.86.45.35.83.78,1.12,1.31s.44,1.16.44,1.92c0,.87-.16,1.64-.49,2.31-.33.67-.79,1.23-1.39,1.68-.6.45-1.32.8-2.15,1.03-.83.23-1.75.35-2.76.35Z"/>
      <polygon class="cls-2" points="720.39 165.52 724.86 165.52 721.84 180.96 717.4 180.96 720.39 165.52"/>
      <path class="cls-2" d="M726.56,165.52h4.27l-.46,2.55h.06c.68-.95,1.4-1.69,2.16-2.22.76-.53,1.69-.8,2.77-.8.99,0,1.79.27,2.41.8.62.53,1.03,1.28,1.25,2.25h.06c1.57-2.03,3.34-3.05,5.31-3.05.79,0,1.48.16,2.08.46.59.31,1.06.74,1.42,1.29.36.55.59,1.2.7,1.94.11.75.08,1.54-.07,2.39l-1.92,9.81h-4.44l1.86-9.55c.15-.85.08-1.51-.22-1.97-.3-.46-.84-.7-1.61-.7s-1.47.3-2.02.89c-.55.59-.92,1.41-1.12,2.45l-1.74,8.88h-4.47l1.86-9.52c.15-.87.09-1.54-.2-2-.29-.46-.81-.7-1.57-.7s-1.45.3-2.02.89c-.57.59-.95,1.41-1.15,2.45l-1.74,8.88h-4.44l2.99-15.44Z"/>
      <path class="cls-2" d="M757.86,181.48c-1.28,0-2.32-.27-3.12-.8-.8-.53-1.36-1.2-1.67-2.02h-.09c-.02.16-.06.54-.13,1.16-.07.62-.21,1.45-.42,2.5l-.73,3.77h-4.44l3.98-20.58h4.3l-.41,2.06h.09c.56-.79,1.25-1.41,2.06-1.86.81-.44,1.72-.67,2.73-.67.85,0,1.61.16,2.28.49.67.33,1.23.78,1.68,1.36.45.58.8,1.27,1.04,2.08.24.8.36,1.68.36,2.63,0,1.43-.19,2.75-.57,3.96-.38,1.21-.9,2.25-1.57,3.12s-1.46,1.55-2.38,2.05c-.92.49-1.92.74-3,.74ZM756.91,178c.58,0,1.11-.16,1.6-.49.48-.33.89-.77,1.23-1.32.34-.55.6-1.2.8-1.94.19-.74.29-1.52.29-2.34,0-1.04-.23-1.86-.7-2.44-.46-.58-1.16-.87-2.09-.87-.64,0-1.21.16-1.71.49-.5.33-.93.76-1.29,1.29-.36.53-.63,1.15-.81,1.84-.18.7-.28,1.4-.28,2.12,0,1.03.25,1.89.75,2.6.5.71,1.24,1.06,2.21,1.06Z"/>
      <path class="cls-2" d="M769.69,159.37h4.47l-4.21,21.59h-4.47l4.21-21.59Z"/>
      <path class="cls-2" d="M797.12,181.45c-2.28,0-4.06-.47-5.34-1.41-1.28-.94-1.94-2.22-2-3.85h4.24c.08.75.38,1.33.9,1.74.52.41,1.24.61,2.15.61.79,0,1.4-.17,1.83-.51.43-.34.64-.79.64-1.35,0-.29-.09-.54-.26-.75-.17-.21-.42-.4-.73-.55-.31-.15-.68-.29-1.12-.42-.44-.13-.91-.26-1.44-.39-.6-.17-1.18-.37-1.74-.58-.56-.21-1.06-.49-1.49-.83-.44-.34-.78-.75-1.04-1.23-.26-.48-.39-1.08-.39-1.8,0-.81.16-1.53.48-2.16.32-.63.77-1.16,1.35-1.6.58-.44,1.27-.76,2.08-.99.8-.22,1.67-.33,2.6-.33,2.11,0,3.7.41,4.79,1.22,1.08.81,1.73,1.93,1.94,3.37h-4.21c-.1-.56-.36-.99-.78-1.29-.43-.3-1.02-.45-1.77-.45-.68,0-1.22.15-1.63.44-.41.29-.61.69-.61,1.19,0,.27.08.49.25.67.16.17.4.33.7.46.3.14.67.27,1.1.39.44.13.91.26,1.44.39.6.16,1.19.34,1.77.57.58.22,1.1.51,1.55.86.45.35.83.78,1.12,1.31s.44,1.16.44,1.92c0,.87-.16,1.64-.49,2.31-.33.67-.79,1.23-1.39,1.68-.6.45-1.32.8-2.15,1.03-.83.23-1.75.35-2.76.35Z"/>
      <path class="cls-2" d="M806.06,186.12h-.51c-.3,0-.62,0-.97-.01-.35-.01-.67-.02-.97-.03-.3-.01-.46-.01-.48-.01l.67-3.48h.15c.31,0,.55,0,.73.01.17,0,.34.01.49.01h.29c.7,0,1.24-.15,1.64-.44.4-.29.67-.7.83-1.22.06-.25.07-.66.04-1.22-.03-.56-.1-1.19-.22-1.89l-2.29-12.33h4.53l.78,5.78c.08.56.14,1.17.19,1.81.05.65.09,1.25.13,1.81.04.64.06,1.28.06,1.92h.06c.23-.6.46-1.22.7-1.86.21-.52.45-1.09.71-1.71.26-.62.53-1.2.8-1.74l3.02-6.01h4.59l-8.5,15.82c-.48.89-.95,1.64-1.41,2.25-.45.61-.93,1.1-1.44,1.48-.5.38-1.05.65-1.64.81-.59.16-1.24.25-1.96.25Z"/>
      <path class="cls-2" d="M822.75,165.52h4.27l-.55,2.93h.09c.62-1.16,1.32-1.98,2.1-2.45.78-.47,1.64-.71,2.57-.71.46,0,.77.04.93.12l-.67,3.95h-.12c-.33-.06-.65-.09-.96-.09-1.26-.02-2.3.34-3.12,1.09-.82.74-1.38,1.88-1.67,3.41l-1.42,7.2h-4.44l2.99-15.44Z"/>
      <path class="cls-2" d="M836.28,181.42c-.85,0-1.59-.16-2.21-.48-.62-.32-1.11-.76-1.48-1.32-.37-.56-.6-1.23-.71-2-.11-.77-.07-1.63.1-2.55l1.83-9.55h4.47l-1.83,9.4c-.17.85-.12,1.52.17,2.02.29.49.84.75,1.65.77.95.02,1.73-.27,2.34-.86.61-.59,1.02-1.41,1.23-2.45l1.71-8.88h4.47l-3.02,15.44h-4.3l.41-2.12h-.06c-.62.83-1.31,1.47-2.06,1.92-.75.44-1.66.67-2.73.67Z"/>
      <path class="cls-2" d="M856.41,181.48c-1.28,0-2.32-.27-3.12-.8-.8-.53-1.36-1.2-1.67-2.02h-.09c-.02.16-.06.54-.13,1.16-.07.62-.21,1.45-.42,2.5l-.73,3.77h-4.44l3.98-20.58h4.3l-.41,2.06h.09c.56-.79,1.25-1.41,2.06-1.86.81-.44,1.72-.67,2.73-.67.85,0,1.61.16,2.28.49.67.33,1.23.78,1.68,1.36.45.58.8,1.27,1.04,2.08.24.8.36,1.68.36,2.63,0,1.43-.19,2.75-.57,3.96-.38,1.21-.9,2.25-1.57,3.12s-1.46,1.55-2.38,2.05c-.92.49-1.92.74-3,.74ZM855.45,178c.58,0,1.11-.16,1.6-.49.48-.33.89-.77,1.23-1.32.34-.55.6-1.2.8-1.94.19-.74.29-1.52.29-2.34,0-1.04-.23-1.86-.7-2.44-.46-.58-1.16-.87-2.09-.87-.64,0-1.21.16-1.71.49-.5.33-.93.76-1.29,1.29-.36.53-.63,1.15-.81,1.84-.18.7-.28,1.4-.28,2.12,0,1.03.25,1.89.75,2.6.5.71,1.24,1.06,2.21,1.06Z"/>
      <path class="cls-2" d="M783.62,176.18c-.34,1-1.13,2.05-2.94,2.05-3.63,0-3.31-3.86-3.31-3.86h11.14c.93-5.15-1.65-9.32-6.77-9.32-4.75,0-7.72,3.16-8.55,8.18-.73,4.41,1.94,8.18,6.83,8.18,5.26,0,7.21-2.77,8.04-5.24h-4.44ZM781.66,168.22c3.25,0,2.67,3.6,2.67,3.6h-6.62s.79-3.6,3.95-3.6Z"/>
      <path class="cls-2" d="M723.36,164.4c1.39,0,2.52-1.13,2.52-2.52s-1.13-2.52-2.52-2.52h-2.52v2.52c0,1.39,1.13,2.52,2.52,2.52Z"/>
    </g>
  </g>
</svg>